<svg width="18" height="18" viewBox="0 0 18 18" fill="none"
    xmlns="http://www.w3.org/2000/svg">
    <path fill-rule="evenodd" clip-rule="evenodd" d="M5.49799 1.50031H12.5022C15.053 1.50031 16.493 2.94706 16.5005 5.49781V12.5028C16.5005 15.0528 15.053 16.5003 12.5022 16.5003H5.49799C2.94724 16.5003 1.50049 15.0528 1.50049 12.5028V5.49781C1.50049 2.94706 2.94724 1.50031 5.49799 1.50031ZM9.03729 13.3953C9.36054 13.3953 9.62979 13.1553 9.65979 12.8328V5.1903C9.68979 4.9578 9.57804 4.72455 9.37554 4.5978C9.16479 4.4703 8.90979 4.4703 8.70804 4.5978C8.50479 4.72455 8.39304 4.9578 8.41479 5.1903V12.8328C8.45304 13.1553 8.72229 13.3953 9.03729 13.3953ZM12.488 13.3953C12.803 13.3953 13.0723 13.1553 13.1105 12.8328V10.3728C13.1323 10.1321 13.0205 9.90781 12.8173 9.78031C12.6155 9.65281 12.3605 9.65281 12.1505 9.78031C11.9473 9.90781 11.8355 10.1321 11.8655 10.3728V12.8328C11.8955 13.1553 12.1648 13.3953 12.488 13.3953ZM6.16476 12.8328C6.13476 13.1553 5.86551 13.3953 5.54226 13.3953C5.21976 13.3953 4.94976 13.1553 4.92051 12.8328V7.6503C4.89801 7.41705 5.00976 7.1853 5.21301 7.0578C5.41476 6.9303 5.67051 6.9303 5.87301 7.0578C6.07476 7.1853 6.18801 7.41705 6.16476 7.6503V12.8328Z" fill="white"/>
</svg>
