<svg width="96" height="31" viewBox="0 0 96 31" fill="none" xmlns="http://www.w3.org/2000/svg">
<path d="M32.8767 15.5C32.8767 24.0604 25.517 31 16.4384 31C7.3597 31 0 24.0604 0 15.5C0 6.93959 7.3597 0 16.4384 0C25.517 0 32.8767 6.93959 32.8767 15.5Z" fill="#5A67BA"/>
<path d="M17.584 24.168C16.352 24.168 15.248 23.968 14.272 23.568C13.296 23.168 12.512 22.576 11.92 21.792C11.344 21.008 11.04 20.064 11.008 18.96H15.376C15.44 19.584 15.656 20.064 16.024 20.4C16.392 20.72 16.872 20.88 17.464 20.88C18.072 20.88 18.552 20.744 18.904 20.472C19.256 20.184 19.432 19.792 19.432 19.296C19.432 18.88 19.288 18.536 19 18.264C18.728 17.992 18.384 17.768 17.968 17.592C17.568 17.416 16.992 17.216 16.24 16.992C15.152 16.656 14.264 16.32 13.576 15.984C12.888 15.648 12.296 15.152 11.8 14.496C11.304 13.84 11.056 12.984 11.056 11.928C11.056 10.36 11.624 9.136 12.76 8.256C13.896 7.36 15.376 6.912 17.2 6.912C19.056 6.912 20.552 7.36 21.688 8.256C22.824 9.136 23.432 10.368 23.512 11.952H19.072C19.04 11.408 18.84 10.984 18.472 10.68C18.104 10.36 17.632 10.2 17.056 10.2C16.56 10.2 16.16 10.336 15.856 10.608C15.552 10.864 15.4 11.24 15.4 11.736C15.4 12.28 15.656 12.704 16.168 13.008C16.68 13.312 17.48 13.64 18.568 13.992C19.656 14.36 20.536 14.712 21.208 15.048C21.896 15.384 22.488 15.872 22.984 16.512C23.48 17.152 23.728 17.976 23.728 18.984C23.728 19.944 23.48 20.816 22.984 21.6C22.504 22.384 21.8 23.008 20.872 23.472C19.944 23.936 18.848 24.168 17.584 24.168Z" fill="#E4E4E4"/>
<path d="M44.82 10.68C44.82 10.92 44.805 11.17 44.775 11.43H38.97C39.01 11.95 39.175 12.35 39.465 12.63C39.765 12.9 40.13 13.035 40.56 13.035C41.2 13.035 41.645 12.765 41.895 12.225H44.625C44.485 12.775 44.23 13.27 43.86 13.71C43.5 14.15 43.045 14.495 42.495 14.745C41.945 14.995 41.33 15.12 40.65 15.12C39.83 15.12 39.1 14.945 38.46 14.595C37.82 14.245 37.32 13.745 36.96 13.095C36.6 12.445 36.42 11.685 36.42 10.815C36.42 9.945 36.595 9.185 36.945 8.535C37.305 7.885 37.805 7.385 38.445 7.035C39.085 6.685 39.82 6.51 40.65 6.51C41.46 6.51 42.18 6.68 42.81 7.02C43.44 7.36 43.93 7.845 44.28 8.475C44.64 9.105 44.82 9.84 44.82 10.68ZM42.195 10.005C42.195 9.565 42.045 9.215 41.745 8.955C41.445 8.695 41.07 8.565 40.62 8.565C40.19 8.565 39.825 8.69 39.525 8.94C39.235 9.19 39.055 9.545 38.985 10.005H42.195Z" fill="#5A67BA"/>
<path d="M51.7732 6.54C52.7532 6.54 53.5332 6.86 54.1132 7.5C54.7032 8.13 54.9982 9 54.9982 10.11V15H52.4482V10.455C52.4482 9.895 52.3032 9.46 52.0132 9.15C51.7232 8.84 51.3332 8.685 50.8432 8.685C50.3532 8.685 49.9632 8.84 49.6732 9.15C49.3832 9.46 49.2382 9.895 49.2382 10.455V15H46.6732V6.63H49.2382V7.74C49.4982 7.37 49.8482 7.08 50.2882 6.87C50.7282 6.65 51.2232 6.54 51.7732 6.54Z" fill="#5A67BA"/>
<path d="M56.7706 10.8C56.7706 9.94 56.9306 9.185 57.2506 8.535C57.5806 7.885 58.0256 7.385 58.5856 7.035C59.1456 6.685 59.7706 6.51 60.4606 6.51C61.0506 6.51 61.5656 6.63 62.0056 6.87C62.4556 7.11 62.8006 7.425 63.0406 7.815V6.63H65.6056V15H63.0406V13.815C62.7906 14.205 62.4406 14.52 61.9906 14.76C61.5506 15 61.0356 15.12 60.4456 15.12C59.7656 15.12 59.1456 14.945 58.5856 14.595C58.0256 14.235 57.5806 13.73 57.2506 13.08C56.9306 12.42 56.7706 11.66 56.7706 10.8ZM63.0406 10.815C63.0406 10.175 62.8606 9.67 62.5006 9.3C62.1506 8.93 61.7206 8.745 61.2106 8.745C60.7006 8.745 60.2656 8.93 59.9056 9.3C59.5556 9.66 59.3806 10.16 59.3806 10.8C59.3806 11.44 59.5556 11.95 59.9056 12.33C60.2656 12.7 60.7006 12.885 61.2106 12.885C61.7206 12.885 62.1506 12.7 62.5006 12.33C62.8606 11.96 63.0406 11.455 63.0406 10.815Z" fill="#5A67BA"/>
<path d="M69.2513 5.76C68.8013 5.76 68.4313 5.63 68.1413 5.37C67.8613 5.1 67.7213 4.77 67.7213 4.38C67.7213 3.98 67.8613 3.65 68.1413 3.39C68.4313 3.12 68.8013 2.985 69.2513 2.985C69.6913 2.985 70.0513 3.12 70.3313 3.39C70.6213 3.65 70.7663 3.98 70.7663 4.38C70.7663 4.77 70.6213 5.1 70.3313 5.37C70.0513 5.63 69.6913 5.76 69.2513 5.76ZM70.5263 6.63V15H67.9613V6.63H70.5263Z" fill="#5A67BA"/>
<path d="M45.195 17.63V26H42.63V24.86C42.37 25.23 42.015 25.53 41.565 25.76C41.125 25.98 40.635 26.09 40.095 26.09C39.455 26.09 38.89 25.95 38.4 25.67C37.91 25.38 37.53 24.965 37.26 24.425C36.99 23.885 36.855 23.25 36.855 22.52V17.63H39.405V22.175C39.405 22.735 39.55 23.17 39.84 23.48C40.13 23.79 40.52 23.945 41.01 23.945C41.51 23.945 41.905 23.79 42.195 23.48C42.485 23.17 42.63 22.735 42.63 22.175V17.63H45.195Z" fill="#5A67BA"/>
<path d="M50.1024 18.815C50.3524 18.425 50.6974 18.11 51.1374 17.87C51.5774 17.63 52.0924 17.51 52.6824 17.51C53.3724 17.51 53.9974 17.685 54.5574 18.035C55.1174 18.385 55.5574 18.885 55.8774 19.535C56.2074 20.185 56.3724 20.94 56.3724 21.8C56.3724 22.66 56.2074 23.42 55.8774 24.08C55.5574 24.73 55.1174 25.235 54.5574 25.595C53.9974 25.945 53.3724 26.12 52.6824 26.12C52.1024 26.12 51.5874 26 51.1374 25.76C50.6974 25.52 50.3524 25.21 50.1024 24.83V29.99H47.5374V17.63H50.1024V18.815ZM53.7624 21.8C53.7624 21.16 53.5824 20.66 53.2224 20.3C52.8724 19.93 52.4374 19.745 51.9174 19.745C51.4074 19.745 50.9724 19.93 50.6124 20.3C50.2624 20.67 50.0874 21.175 50.0874 21.815C50.0874 22.455 50.2624 22.96 50.6124 23.33C50.9724 23.7 51.4074 23.885 51.9174 23.885C52.4274 23.885 52.8624 23.7 53.2224 23.33C53.5824 22.95 53.7624 22.44 53.7624 21.8Z" fill="#5A67BA"/>
<path d="M66.1081 21.68C66.1081 21.92 66.0931 22.17 66.0631 22.43H60.2581C60.2981 22.95 60.4631 23.35 60.7531 23.63C61.0531 23.9 61.4181 24.035 61.8481 24.035C62.4881 24.035 62.9331 23.765 63.1831 23.225H65.9131C65.7731 23.775 65.5181 24.27 65.1481 24.71C64.7881 25.15 64.3331 25.495 63.7831 25.745C63.2331 25.995 62.6181 26.12 61.9381 26.12C61.1181 26.12 60.3881 25.945 59.7481 25.595C59.1081 25.245 58.6081 24.745 58.2481 24.095C57.8881 23.445 57.7081 22.685 57.7081 21.815C57.7081 20.945 57.8831 20.185 58.2331 19.535C58.5931 18.885 59.0931 18.385 59.7331 18.035C60.3731 17.685 61.1081 17.51 61.9381 17.51C62.7481 17.51 63.4681 17.68 64.0981 18.02C64.7281 18.36 65.2181 18.845 65.5681 19.475C65.9281 20.105 66.1081 20.84 66.1081 21.68ZM63.4831 21.005C63.4831 20.565 63.3331 20.215 63.0331 19.955C62.7331 19.695 62.3581 19.565 61.9081 19.565C61.4781 19.565 61.1131 19.69 60.8131 19.94C60.5231 20.19 60.3431 20.545 60.2731 21.005H63.4831Z" fill="#5A67BA"/>
<path d="M70.5263 19.025C70.8263 18.565 71.2013 18.205 71.6513 17.945C72.1013 17.675 72.6013 17.54 73.1513 17.54V20.255H72.4463C71.8063 20.255 71.3262 20.395 71.0062 20.675C70.6862 20.945 70.5263 21.425 70.5263 22.115V26H67.9613V17.63H70.5263V19.025Z" fill="#5A67BA"/>
<path d="M76.1673 16.76C75.7173 16.76 75.3473 16.63 75.0573 16.37C74.7773 16.1 74.6373 15.77 74.6373 15.38C74.6373 14.98 74.7773 14.65 75.0573 14.39C75.3473 14.12 75.7173 13.985 76.1673 13.985C76.6073 13.985 76.9673 14.12 77.2473 14.39C77.5373 14.65 77.6823 14.98 77.6823 15.38C77.6823 15.77 77.5373 16.1 77.2473 16.37C76.9673 16.63 76.6073 16.76 76.1673 16.76ZM77.4423 17.63V26H74.8773V17.63H77.4423Z" fill="#5A67BA"/>
<path d="M83.6111 26.12C82.7911 26.12 82.0511 25.945 81.3911 25.595C80.7411 25.245 80.2261 24.745 79.8461 24.095C79.4761 23.445 79.2911 22.685 79.2911 21.815C79.2911 20.955 79.4811 20.2 79.8611 19.55C80.2411 18.89 80.7611 18.385 81.4211 18.035C82.0811 17.685 82.8211 17.51 83.6411 17.51C84.4611 17.51 85.2011 17.685 85.8611 18.035C86.5211 18.385 87.0411 18.89 87.4211 19.55C87.8011 20.2 87.9911 20.955 87.9911 21.815C87.9911 22.675 87.7961 23.435 87.4061 24.095C87.0261 24.745 86.5011 25.245 85.8311 25.595C85.1711 25.945 84.4311 26.12 83.6111 26.12ZM83.6111 23.9C84.1011 23.9 84.5161 23.72 84.8561 23.36C85.2061 23 85.3811 22.485 85.3811 21.815C85.3811 21.145 85.2111 20.63 84.8711 20.27C84.5411 19.91 84.1311 19.73 83.6411 19.73C83.1411 19.73 82.7261 19.91 82.3961 20.27C82.0661 20.62 81.9011 21.135 81.9011 21.815C81.9011 22.485 82.0611 23 82.3811 23.36C82.7111 23.72 83.1211 23.9 83.6111 23.9Z" fill="#5A67BA"/>
<path d="M92.4169 19.025C92.7169 18.565 93.0919 18.205 93.5419 17.945C93.9919 17.675 94.4919 17.54 95.0419 17.54V20.255H94.3369C93.6969 20.255 93.2169 20.395 92.8969 20.675C92.5769 20.945 92.4169 21.425 92.4169 22.115V26H89.8519V17.63H92.4169V19.025Z" fill="#5A67BA"/>
</svg>
