<svg width="16" height="14" viewBox="0 0 16 14" fill="none" xmlns="http://www.w3.org/2000/svg">
<path d="M14.1875 0.25H1.8125C0.85625 0.25 0.125 0.98125 0.125 1.9375V12.0625C0.125 13.0188 0.85625 13.75 1.8125 13.75H14.1875C15.1438 13.75 15.875 13.0188 15.875 12.0625V1.9375C15.875 0.98125 15.1438 0.25 14.1875 0.25ZM6.3125 9.25V7H10.25V9.25H6.3125ZM10.25 10.375V12.625H6.3125V10.375H10.25ZM10.25 3.625V5.875H6.3125V3.625H10.25ZM14.75 3.625V5.875H11.375V3.625H14.75ZM5.1875 5.875H1.25V3.625H5.1875V5.875ZM1.25 7H5.1875V9.25H1.25V7ZM11.375 7H14.75V9.25H11.375V7ZM1.25 12.0625V10.375H5.1875V12.625H1.8125C1.475 12.625 1.25 12.4 1.25 12.0625ZM14.1875 12.625H11.375V10.375H14.75V12.0625C14.75 12.4 14.525 12.625 14.1875 12.625Z" fill="white"/>
</svg>
