<svg width="16" height="19" viewBox="0 0 16 19" fill="none"
    xmlns="http://www.w3.org/2000/svg">
    <path d="M15.5507 4.25955L12.1357 4.55306C12.1184 4.55455 12.102 4.56099 12.0883 4.57162C12.0746 4.58225 12.0643 4.5966 12.0586 4.61296C12.0529 4.62931 12.0521 4.64697 12.0562 4.66379C12.0603 4.68061 12.0692 4.69589 12.0818 4.70777L12.9433 5.52026L12.6244 5.84566L11.9767 6.51808C11.7271 6.78113 11.4785 7.04481 11.2309 7.30912C11.0536 7.4992 10.8772 7.69042 10.7018 7.88275C10.282 8.34225 9.86753 8.807 9.45841 9.27698C9.25485 9.51272 9.05204 9.74958 8.85222 9.98907C8.79909 10.0527 8.7467 10.117 8.69394 10.181L4.61451 7.88798L0 12.9145L0.788794 13.6838L4.85287 9.76192L8.89001 12.388L8.99104 12.4535L9.56505 11.9506C9.80004 11.7444 10.0314 11.5348 10.2592 11.3219C10.4878 11.1094 10.7131 10.8942 10.9376 10.6783C11.3859 10.2454 11.8275 9.80645 12.2626 9.36154C12.6996 8.91813 13.1285 8.46685 13.5562 8.01483L14.1927 7.33156L14.5038 6.99203L15.3263 7.76779C15.3388 7.77955 15.3544 7.78749 15.3712 7.79068C15.388 7.79387 15.4054 7.79217 15.4213 7.78578C15.4372 7.7794 15.451 7.76859 15.4609 7.75464C15.4709 7.74069 15.4767 7.72418 15.4775 7.70706L15.648 4.35351C15.6487 4.34071 15.6466 4.32792 15.6419 4.316C15.6372 4.30408 15.63 4.2933 15.6208 4.2844C15.6115 4.2755 15.6005 4.26867 15.5884 4.26438C15.5763 4.2601 15.5635 4.25845 15.5507 4.25955Z" fill="white" />
    <path d="M4.44214 11.2707V18.1876C4.44225 18.2654 4.47322 18.34 4.52825 18.395C4.58328 18.4501 4.65789 18.481 4.73572 18.4812H6.77077C6.84859 18.481 6.9232 18.4501 6.97823 18.395C7.03327 18.34 7.06423 18.2654 7.06435 18.1876V12.1555L4.95023 10.7803L4.44214 11.2707Z" fill="white" />
    <path d="M9.06345 13.4546L8.07861 12.815V18.1876C8.07873 18.2654 8.10969 18.34 8.16473 18.395C8.21976 18.4501 8.29437 18.481 8.37219 18.4812H10.4072C10.4851 18.481 10.5597 18.4501 10.6147 18.395C10.6697 18.34 10.7007 18.2654 10.7008 18.1876V12.0047C10.5053 12.1859 10.3008 12.37 10.093 12.5525L9.06345 13.4546Z" fill="white" />
    <path d="M12.8327 9.92361C12.4297 10.334 12.0614 10.7013 11.7151 11.0392V18.1876C11.7152 18.2654 11.7462 18.34 11.8012 18.395C11.8562 18.4501 11.9308 18.481 12.0087 18.4812H14.0437C14.1215 18.481 14.1962 18.4501 14.2512 18.395C14.3062 18.34 14.3372 18.2654 14.3373 18.1876V8.35095L14.1378 8.56513C13.7244 9.00183 13.2834 9.46656 12.8327 9.92361Z" fill="white" />
    <path d="M8.98468 5.31228C8.8586 5.40471 8.62373 5.45111 8.28007 5.45149C7.98764 5.45301 7.69646 5.41325 7.41514 5.33339C7.17326 5.26625 6.93753 5.17864 6.71052 5.07151L6.34766 6.042C6.53336 6.12953 6.72362 6.20705 6.91762 6.27421C7.24119 6.38055 7.57719 6.44442 7.91721 6.4642V7.46835H8.98069V6.43854C9.22314 6.40411 9.45829 6.33009 9.67675 6.21944C9.85181 6.12898 10.0079 6.0058 10.1366 5.85658C10.2513 5.72224 10.3375 5.56598 10.3899 5.3973C10.4401 5.23466 10.4657 5.06543 10.4658 4.89522C10.4709 4.67179 10.4262 4.45003 10.3352 4.24595C10.2487 4.06116 10.1252 3.89609 9.97229 3.761C9.80609 3.61544 9.62181 3.49195 9.424 3.39357C9.20082 3.2811 8.97104 3.18221 8.73593 3.09746C8.57275 3.04097 8.43354 2.98886 8.31829 2.94113C8.21715 2.90052 8.11978 2.85107 8.02732 2.79336C7.95652 2.75062 7.89719 2.69129 7.85444 2.62049C7.81589 2.5493 7.79681 2.46921 7.7991 2.38828C7.79769 2.31926 7.8131 2.25093 7.84402 2.18919C7.87493 2.12746 7.92042 2.07419 7.97654 2.03398C8.15173 1.92894 8.35551 1.88163 8.55906 1.89876C8.81874 1.89754 9.07772 1.92587 9.331 1.9832C9.55155 2.03192 9.76745 2.09969 9.97628 2.18574L10.2382 1.17303C10.0755 1.10371 9.9076 1.04725 9.73609 1.00415C9.48806 0.941914 9.23546 0.899559 8.98069 0.877489V0H7.91721V0.911724C7.69331 0.948614 7.47679 1.02124 7.27592 1.12681C7.1121 1.21195 6.96691 1.32893 6.84886 1.47088C6.7308 1.61284 6.64226 1.77692 6.58842 1.95352C6.53453 2.12698 6.50741 2.30763 6.50798 2.48926C6.50021 2.69005 6.53926 2.88989 6.62204 3.07298C6.70482 3.25608 6.82907 3.4174 6.98495 3.54419C7.1318 3.6642 7.29344 3.76487 7.46592 3.84372C7.64336 3.92531 7.82479 3.99986 8.01021 4.06737C8.20134 4.13527 8.37022 4.19803 8.51685 4.25736C8.64317 4.30645 8.76465 4.36719 8.87971 4.43879C8.96593 4.49215 9.04045 4.56241 9.0988 4.64533C9.15111 4.7271 9.17756 4.82273 9.17468 4.91976C9.1781 4.99582 9.16252 5.07153 9.12935 5.14006C9.09618 5.20859 9.04646 5.26778 8.98468 5.31228Z" fill="white" />
</svg>
