<svg width="18" height="18" viewBox="0 0 18 18" fill="none"
    xmlns="http://www.w3.org/2000/svg">
    <path d="M4.63932 3.79992C4.63932 5.89917 6.33975 7.6013 8.43729 7.60091C9.34351 7.60075 10.2197 7.27558 10.9076 6.68514C10.5751 6.35028 10.3681 5.8905 10.3681 5.38591C10.3681 4.37201 11.2023 3.53787 12.216 3.53787C12.2182 3.53787 12.2203 3.53841 12.2224 3.53843C12.0852 1.54698 10.4321 0.00109973 8.38594 5.32195e-07C6.33975 -0.00109867 4.63932 1.70066 4.63932 3.79992ZM8.71852 1.68544V1.96067C9.2114 2.08573 9.5076 2.43327 9.64685 2.8737C9.74284 3.24212 9.2292 3.38989 9.10908 3.04235C8.99656 2.68647 8.77273 2.50529 8.42792 2.4919C8.04471 2.49551 7.74897 2.78212 7.74897 3.14783C7.74897 3.32119 7.81105 3.3752 7.89454 3.41592C8.00675 3.47074 8.22496 3.50488 8.46748 3.53018C8.71001 3.55544 8.9778 3.57325 9.22937 3.69609C9.48095 3.81894 9.69026 4.05929 9.69026 4.46848C9.69024 5.05171 9.27064 5.53743 8.71851 5.66114V5.9056C8.71851 6.27205 8.15601 6.28626 8.15601 5.9056V5.65839C7.78796 5.56375 7.41139 5.30543 7.23041 4.74481C7.12826 4.38446 7.64428 4.22018 7.76765 4.57451C7.87468 4.9271 8.1271 5.12473 8.4488 5.13101C8.83203 5.12739 9.12775 4.82761 9.12775 4.46848C9.12775 4.27686 9.05164 4.23954 8.98219 4.20095C8.86998 4.14617 8.65178 4.11363 8.40925 4.08833C8.16673 4.06307 7.89893 4.04526 7.64735 3.92242C7.39576 3.79958 7.18647 3.56253 7.18647 3.14783C7.18647 2.55883 7.60501 2.07874 8.15601 1.95463V1.68544C8.15601 1.49648 8.30052 1.40391 8.43836 1.40472C8.57621 1.40553 8.71852 1.49975 8.71852 1.68544ZM12.2149 4.09986C11.5054 4.10002 10.9305 4.67585 10.9306 5.38591C10.9308 6.09575 11.5057 6.67125 12.2149 6.6714C12.9244 6.67155 13.4996 6.09596 13.4998 5.38591C13.4999 4.67564 12.9246 4.09971 12.2149 4.09986ZM12.7807 5.40239L12.3215 5.88033C12.2119 5.99436 12.0307 5.996 11.9188 5.88416L11.6266 5.5919C11.3528 5.31809 11.7494 4.9193 12.0232 5.19306L12.1144 5.28425L12.3737 5.01232C12.6324 4.74098 13.0416 5.1309 12.7807 5.40239ZM15.1466 7.98439L13.7761 8.77052C13.6472 8.84445 13.6124 8.97623 13.6618 9.06112C14.5035 10.5067 15.3427 11.9535 16.1838 13.3994C16.2331 13.4843 16.3668 13.5196 16.4941 13.4466L17.8652 12.6605C17.9862 12.5911 18.0294 12.4548 17.98 12.3699L15.4576 8.03109C15.4238 7.97309 15.3046 7.89378 15.1466 7.98439ZM2.80347 8.47329L0.0338125 13.2401C-0.0368228 13.3616 0.00841616 13.5084 0.12119 13.573L1.49283 14.3586C1.61457 14.4283 1.76221 14.3843 1.82956 14.2684L4.59977 9.50169C4.67045 9.38015 4.62485 9.23402 4.51186 9.16878L3.14021 8.3832C3.01042 8.30887 2.86672 8.36442 2.80347 8.47329ZM9.05085 10.0033C8.31717 10.0869 7.70603 10.3077 7.4853 10.5416C7.27592 10.7635 6.93422 11.2759 6.68933 11.7711C6.5669 12.0187 6.46632 12.264 6.41083 12.4649C6.35534 12.6659 6.3546 12.8079 6.36905 12.8478C6.38872 12.8906 6.39573 12.9264 6.49759 12.9247C6.61148 12.9218 6.81185 12.8565 7.03757 12.7253C7.489 12.463 8.03003 11.9642 8.37681 11.4717C8.46081 11.3524 8.62205 11.3163 8.74924 11.3893C10.5256 12.408 12.3084 13.4319 14.0826 14.4459L15.3806 13.1588L13.5475 9.98512C13.4672 10.016 13.3756 10.046 13.1438 10.0906C12.7292 10.1703 12.1232 10.2118 11.347 10.0747C10.9912 10.0118 10.6006 9.97296 10.2071 9.9604C9.81367 9.94785 9.41768 9.96144 9.05085 10.0033ZM4.75574 10.3576L2.56837 14.1212L3.40003 14.7404C3.69707 14.4644 4.15008 14.4194 4.50471 14.6228C4.59347 14.6741 4.72394 14.7717 4.79474 14.8793C5.06235 14.4878 5.59531 14.3406 6.04334 14.5975C6.34168 14.7686 6.50161 15.0655 6.51246 15.3562C6.65783 15.342 6.86322 15.3699 7.05298 15.4787C7.35133 15.6498 7.52 15.9686 7.52265 16.2384C7.6944 16.2265 7.87396 16.2527 8.06372 16.3615C8.43499 16.5758 8.57589 16.9605 8.52625 17.3119C8.89535 17.5266 9.19199 17.6958 9.58094 17.9184C9.76603 18.0243 9.99755 17.9582 10.0995 17.7816C10.2014 17.605 10.1455 17.3757 9.96052 17.2696C9.65522 17.0958 9.35681 16.9254 9.05194 16.7493C8.71768 16.5564 8.99897 16.0697 9.3332 16.2626C9.83019 16.5494 10.3971 16.8708 10.9273 17.1773C11.1119 17.284 11.3386 17.2183 11.4426 17.0394C11.5465 16.8605 11.4908 16.633 11.3058 16.5269C10.6613 16.1572 10.0189 15.7931 9.37055 15.4188C9.02711 15.2205 9.31176 14.735 9.65509 14.9332C10.4462 15.3899 11.2442 15.8462 12.0435 16.3049C12.2285 16.4111 12.4578 16.3452 12.561 16.1665C12.6642 15.9878 12.6069 15.7625 12.4231 15.6567C11.5892 15.1764 10.5975 14.6116 9.62323 14.0498C9.29189 13.8587 9.58127 13.3811 9.90284 13.5642C10.9487 14.1596 12.2068 14.8831 13.3894 15.5622C13.5743 15.6684 13.8009 15.6027 13.9046 15.4243C14.0084 15.2459 13.9539 15.02 13.7689 14.9139C12.0738 13.9427 8.68336 12.0007 8.68336 12.0007C8.2992 12.4841 7.79716 12.9349 7.32214 13.2109C7.04969 13.3693 6.78468 13.4782 6.51355 13.4851C6.19408 13.4986 5.94229 13.3225 5.83899 13.039C5.76011 12.8227 5.79562 12.568 5.86535 12.3155C5.93508 12.063 6.04834 11.7915 6.18175 11.5217C6.35473 11.1719 6.53313 10.8785 6.70525 10.629L4.75574 10.3576ZM5.24573 15.2199C4.98284 15.6753 4.71726 16.1291 4.45362 16.584C4.34667 16.7686 4.41514 16.9927 4.5915 17.0938C4.76786 17.1949 4.99934 17.1402 5.10675 16.9559C5.37803 16.4905 5.60653 16.0966 5.89997 15.5941C6.00752 15.4098 5.93891 15.1763 5.76099 15.0826C5.55165 14.9723 5.33877 15.0588 5.24573 15.2199ZM3.70709 15.2458L3.57582 15.4743C3.46956 15.6592 3.53436 15.8836 3.71149 15.9852C3.88863 16.0868 4.12175 16.0306 4.22895 15.8462C4.27295 15.7705 4.31697 15.6948 4.36133 15.6193C4.46939 15.4354 4.40333 15.2053 4.22345 15.1101C4.01287 14.9986 3.80312 15.0786 3.70709 15.2458ZM6.25593 16.1033L5.72749 17.0119C5.62025 17.1963 5.68773 17.4193 5.86537 17.5212C6.04303 17.6231 6.2747 17.57 6.38172 17.3855C6.52929 17.1311 6.76499 16.7266 6.91016 16.4769C7.01734 16.2924 6.9452 16.0571 6.77173 15.9654C6.55447 15.8506 6.34743 15.946 6.25593 16.1033ZM7.26612 16.9861C7.17901 17.137 7.08706 17.2939 7.00245 17.441C6.89666 17.6248 6.96716 17.8515 7.14033 17.9508C7.31345 18.05 7.55177 17.9971 7.65833 17.8123L7.92036 17.358C8.02693 17.1733 7.96617 16.9426 7.78413 16.8471C7.574 16.737 7.35751 16.8278 7.26612 16.9861Z" fill="white"/>
</svg>
